<svg xmlns="http://www.w3.org/2000/svg" width="48.1" height="25.199" viewBox="0 0 48.1 25.199">
  <g id="Group_103755" data-name="Group 103755" transform="translate(-1823.9 -19.9)">
    <g id="noun_User_1576311" transform="translate(1807 6)">
      <g id="Group_103641" data-name="Group 103641" transform="translate(17 14)">
        <path id="Path_9094" data-name="Path 9094" d="M32.247,26.464a6.655,6.655,0,1,0-6.78,0A12.152,12.152,0,0,0,17,37.913a1.176,1.176,0,0,0,.287.761A.973.973,0,0,0,18.04,39H39.96a.973.973,0,0,0,.753-.326A1.176,1.176,0,0,0,41,37.913,12.346,12.346,0,0,0,32.247,26.464ZM23.637,20.7a5.2,5.2,0,1,1,5.2,5.254A5.232,5.232,0,0,1,23.637,20.7ZM18.471,37.551A10.546,10.546,0,0,1,28.839,27.406,10.876,10.876,0,0,1,39.565,37.551Z" transform="translate(-17 -14)" fill="#202124" stroke="#202124" stroke-width="0.2"/>
      </g>
    </g>
    <path id="round-keyboard_arrow_down-24px" d="M11.686,0a.876.876,0,0,1,0,1.344L6.757,5.721a1.167,1.167,0,0,1-1.514,0L.314,1.344A.876.876,0,0,1,.314,0Z" transform="translate(1860 29)" fill="#202124"/>
  </g>
</svg>
